<svg xmlns="http://www.w3.org/2000/svg" width="762" height="554" fill="none" viewBox="0 0 762 554">
  <path fill="#59C65B" d="m218.739 346.625-59.934 13.9c3.538 6.884 7.095 13.772 10.647 20.652 37.788-15.623 81.143-24.979 127.92-30.745 46.786-5.776 96.915-7.954 148.001-9.458 51.118-1.506 103.165-2.327 153.95-5.573 50.786-3.263 100.354-8.902 146.589-20.458 4.488-1.125 8.423-3.443 11.251-6.411 2.834-2.967 4.527-6.624 4.795-10.356.281-3.739-.856-7.529-3.239-10.743-2.377-3.218-5.941-5.896-10.829-7.649-19.831-7.134-42.681-12.642-68.033-17.118-25.326-4.463-53.166-7.856-82.771-10.48-59.206-5.231-125.598-7.389-192.603-8.316-66.997-.916-134.612-.586-195.88-.779-61.21-.186-116.237-.929-156.928-3.824-8.556-.6-17.2 1.722-23.714 6.1-6.552 4.332-10.89 10.756-11.86 17.547-1.028 6.782 1.333 13.835 6.43 19.286 5.071 5.479 12.794 9.375 22.181 10.505 87.534 10.539 187.378 17.933 287.571 19.332 100.221 1.371 200.721-3.18 290.183-17.012 8.317-1.291 15.711-4.766 21.262-9.589 5.574-4.798 9.235-11.003 10.322-17.521 1.139-6.499-.325-13.277-4.068-19.107-3.729-5.847-9.695-10.81-17.899-14.107-45.902-18.452-95.517-27.359-145.843-31.694-50.372-4.327-101.751-4.123-152.334-3.491-50.549.653-100.333 1.739-146.954-.208-46.639-1.909-89.945-6.891-127.865-17.436 2.357 21.639 4.704 43.285 7.053 64.915 5.496-2.413 15.468-5.438 28.493-7.989 13.032-2.582 29.124-4.803 47.314-6.519 36.427-3.474 81.193-5.011 129.112-5.214 47.96-.213 99.173.867 149.206 2.403 25.003.774 49.731 1.663 73.638 2.561 23.9.89 46.985 1.837 68.725 2.601 23.109.8 44.711 1.388 64.252 1.704 19.534.332 36.985.396 51.993.12 12.303-.229 22.726-3.948 30.37-9.942 7.681-5.951 12.487-14.224 13.247-22.794.832-8.559-2.408-17.32-8.928-24.118-6.459-6.831-16.085-11.752-26.431-13.19-77.202-10.747-155.544-13.336-233.053-15.545-77.495-2.176-154.403-3.984-228.164-12.478-53.37-6.128-104.941-15.672-153.584-30.152-1.809 18.387-3.613 36.758-5.422 55.144 65.987-7.852 135.716-10.723 206.764-11.163 71.067-.438 143.511 1.525 215.232 3.236 60.316 1.45 120.085 3.58 177.955 5.354 10.953.333 21.089-2.484 29.079-7.469 8.01-4.961 13.823-12.171 16.152-20.095 2.4-7.904 1.3-16.46-3.044-23.809-4.278-7.371-11.727-13.596-21.48-17.254-87.307-32.657-187.741-51.104-288.478-63.955C298.386 15.436 197.244 8.444 109.81.24 99.183-.755 89.198 1.39 81.144 5.77c-8.077 4.354-14.17 11.025-16.91 18.535-2.797 7.5-2.228 15.779 1.593 22.97C69.59 54.5 76.493 60.687 85.615 64.358c44.864 18.035 94.089 27.337 144.763 32.053 50.716 4.665 103.116 4.722 155.101 3.263 51.963-1.474 103.507-4.49 152.036-6.322 48.504-1.84 94.021-2.448 133.232.502 41.891 3.148 49.479-57.462 7.65-61.084-45.33-3.928-93.959-3.723-143.941-2.458-49.947 1.272-101.241 3.656-151.234 4.476-49.981.84-98.649.097-142.901-4.505-44.288-4.567-83.924-13.016-116.573-26.628-8.062 21.376-16.132 42.742-24.194 64.117 89.123 9.238 188.912 17.1 285.531 30.087 96.563 12.924 189.822 31.17 264.625 59.583a298129.89 298129.89 0 0 1 20.716-68.616c-57.542-1.946-117.615-4.19-178.838-5.666-72.792-1.78-147.258-1.268-220.849 2.43-73.593 3.7-146.293 10.534-215.87 21.534-8.953 1.414-15.883 4.838-20.874 9.564-5.025 4.706-8.052 10.764-8.45 16.96-.467 6.194 1.693 12.486 6.033 17.609 4.295 5.15 10.716 9.187 17.889 11.013 54.932 13.986 110.879 22.647 167.098 29.09 77.624 8.883 156.018 13.669 232.712 19.51 76.655 5.814 151.391 12.653 221.114 24.933 2.74-23.354 5.493-46.696 8.246-70.041-13.202-.22-29.72-.795-48.599-1.562-18.884-.779-40.166-1.741-63.146-2.68-21.62-.883-44.742-1.759-68.8-2.655-24.061-.878-49.066-1.734-74.479-2.472-50.841-1.452-103.293-2.396-153.306-1.948-50.036.461-97.552 2.27-139.2 6.513-20.85 2.13-40.242 4.85-58.077 8.527-17.85 3.699-34.144 8.22-49.222 14.875-8.08 3.563-14.08 8.733-17.957 14.749C1.947 205.112.24 212.03 1.01 218.773c.748 6.756 3.95 13.311 9.129 18.66 5.16 5.347 12.22 9.574 20.713 11.848 49.422 13.223 100.852 18.185 152.233 19.812 51.389 1.596 102.909-.191 152.795-1.414 49.861-1.252 98.076-1.936 142.299 1.261 44.281 3.164 84.296 10.182 118.907 23.457 3.2-20.11 6.413-40.211 9.614-60.321-81.496 13.965-177.41 20.154-273.972 20.585-96.596.449-193.968-4.79-279.013-13.213-2.321 17.813-4.63 35.619-6.95 53.432 44.715 2.195 100.714 1.669 162.455.505 61.694-1.179 128.964-3.028 195.12-3.675 66.124-.644 131.135-.063 187.909 3.569 28.377 1.809 54.679 4.383 77.911 7.876 23.222 3.482 43.37 7.925 59.268 13.178.669-11.717 1.322-23.429 1.981-35.157-40.838 11.387-87.127 18.031-136.075 22.404-48.94 4.4-100.487 6.57-151.91 9.41-51.43 2.853-102.758 6.393-151.468 13.711-48.712 7.315-94.849 18.436-135.647 36.663-3.362 1.506-5.611 3.792-6.659 6.387-1.075 2.585-.92 5.494.443 7.995 1.332 2.505 3.859 4.586 6.938 5.716 3.072 1.162 6.68 1.393 9.917.546 19.782-5.153 39.558-10.316 59.342-15.467 6.434-1.682 9.174-7.758 7.31-12.684-1.884-4.931-8.358-8.735-14.86-7.232Z"/>
  <path fill="#59C65B" d="M217.91 518.109c-19.977 4.634-39.956 9.265-59.933 13.899 3.537 6.884 7.095 13.773 10.646 20.653 37.789-15.624 81.144-24.979 127.921-30.746 46.785-5.775 96.915-7.954 148.001-9.457 51.117-1.506 103.165-2.327 153.95-5.573 50.785-3.263 100.354-8.902 146.589-20.459 4.488-1.125 8.422-3.443 11.25-6.41 2.834-2.967 4.527-6.624 4.796-10.356.281-3.739-.857-7.529-3.24-10.744-2.376-3.217-5.941-5.895-10.828-7.649-19.831-7.134-42.681-12.641-68.034-17.117-25.326-4.463-53.165-7.856-82.771-10.48-59.206-5.231-125.598-7.389-192.602-8.316-66.997-.916-134.613-.586-195.88-.78-61.211-.185-116.238-.928-156.928-3.824-8.556-.599-17.201 1.723-23.714 6.101-6.552 4.332-10.89 10.756-11.86 17.546-1.028 6.782 1.332 13.836 6.43 19.286 5.07 5.48 12.793 9.375 22.18 10.505 87.535 10.54 187.378 17.934 287.572 19.333 100.221 1.371 200.72-3.18 290.182-17.012 8.318-1.291 15.712-4.766 21.263-9.59 5.574-4.797 9.235-11.002 10.322-17.52 1.138-6.5-.325-13.277-4.069-19.107-3.729-5.847-9.694-10.811-17.898-14.107-45.903-18.453-95.517-27.359-145.844-31.695-50.372-4.326-101.75-4.122-152.334-3.49-50.548.653-100.332 1.738-146.953-.208-46.639-1.909-89.946-6.891-127.865-17.437 2.357 21.64 4.703 43.286 7.053 64.916 5.496-2.413 15.467-5.438 28.493-7.989 13.032-2.582 29.124-4.803 47.313-6.519 36.428-3.475 81.194-5.011 129.112-5.214 47.96-.213 99.174.866 149.206 2.403 25.003.774 49.732 1.662 73.639 2.56 23.9.89 46.985 1.838 68.724 2.602 23.11.799 44.712 1.388 64.252 1.704 19.534.332 36.986.395 51.994.12 12.302-.23 22.726-3.948 30.37-9.942 7.68-5.951 12.487-14.224 13.246-22.794.832-8.56-2.408-17.32-8.927-24.118-6.46-6.832-16.086-11.752-26.431-13.191-77.203-10.746-155.545-13.335-233.053-15.544-77.495-2.177-154.403-3.984-228.164-12.478-53.37-6.129-104.941-15.672-153.585-30.152l-5.421 55.143c65.987-7.851 135.715-10.722 206.763-11.163 71.068-.437 143.511 1.525 215.233 3.237 60.316 1.45 120.084 3.58 177.954 5.353 10.953.334 21.09-2.484 29.08-7.468 8.01-4.961 13.822-12.172 16.152-20.095 2.4-7.904 1.3-16.46-3.044-23.81-4.279-7.37-11.727-13.596-21.481-17.253-87.306-32.658-187.74-51.105-288.477-63.955-100.702-12.788-201.845-19.78-289.279-27.984-10.627-.995-20.612 1.148-28.665 5.529-8.077 4.354-14.17 11.025-16.91 18.535-2.797 7.502-2.228 15.779 1.592 22.971 3.763 7.224 10.667 13.411 19.789 17.082 44.863 18.036 94.088 27.337 144.763 32.053 50.715 4.666 103.116 4.723 155.101 3.264 51.962-1.474 103.506-4.49 152.036-6.322 48.504-1.84 94.021-2.448 133.232.502 41.891 3.147 49.479-57.462 7.649-61.084-45.329-3.928-93.958-3.723-143.94-2.458-49.947 1.272-101.241 3.656-151.234 4.476-49.981.84-98.649.096-142.901-4.505-44.288-4.567-83.925-13.016-116.573-26.628-8.063 21.375-16.132 42.742-24.195 64.117 89.124 9.238 188.913 17.099 285.532 30.087 96.562 12.923 189.821 31.17 264.624 59.583a319209.1 319209.1 0 0 1 20.717-68.616c-57.543-1.946-117.616-4.19-178.838-5.666-72.793-1.78-147.259-1.268-220.85 2.431-73.593 3.699-146.293 10.533-215.87 21.532-8.953 1.415-15.882 4.838-20.873 9.565-5.026 4.706-8.052 10.764-8.45 16.96-.468 6.194 1.693 12.485 6.033 17.609 4.294 5.149 10.715 9.187 17.888 11.013 54.933 13.986 110.879 22.646 167.099 29.09 77.624 8.882 156.018 13.669 232.711 19.509 76.655 5.815 151.392 12.654 221.114 24.934 2.741-23.355 5.493-46.696 8.246-70.042-13.201-.219-29.72-.795-48.598-1.561-18.885-.78-40.166-1.742-63.146-2.681-21.62-.882-44.742-1.758-68.8-2.654-24.062-.879-49.067-1.735-74.48-2.472-50.841-1.452-103.293-2.396-153.306-1.948-50.035.461-97.551 2.27-139.199 6.513-20.851 2.13-40.242 4.849-58.078 8.527-17.85 3.699-34.143 8.22-49.221 14.875-8.081 3.563-14.08 8.732-17.957 14.748C1.118 376.596-.59 383.513.18 390.257c.747 6.756 3.95 13.311 9.128 18.66 5.16 5.347 12.22 9.573 20.713 11.848 49.423 13.222 100.852 18.184 152.233 19.811 51.389 1.597 102.909-.19 152.796-1.413 49.861-1.252 98.076-1.937 142.298 1.261 44.282 3.164 84.296 10.182 118.907 23.457 3.201-20.11 6.414-40.212 9.614-60.322-81.495 13.966-177.41 20.155-273.972 20.585-96.596.45-193.967-4.789-279.013-13.212-2.32 17.812-4.63 35.619-6.95 53.432 44.715 2.195 100.715 1.668 162.455.505 61.694-1.179 128.965-3.029 195.121-3.675 66.124-.645 131.135-.063 187.909 3.568 28.377 1.81 54.679 4.384 77.91 7.877 23.222 3.482 43.371 7.925 59.269 13.177.668-11.716 1.321-23.428 1.98-35.156-40.838 11.387-87.127 18.031-136.075 22.404-48.939 4.399-100.487 6.57-151.909 9.41-51.43 2.853-102.759 6.392-151.469 13.71-48.712 7.315-94.848 18.437-135.646 36.663-3.363 1.507-5.611 3.793-6.66 6.388-1.074 2.585-.919 5.494.443 7.994 1.333 2.506 3.86 4.587 6.938 5.717 3.072 1.161 6.681 1.393 9.918.546 19.782-5.154 39.558-10.316 59.342-15.467 6.433-1.682 9.173-7.758 7.31-12.684-1.884-4.931-8.358-8.735-14.861-7.232Z"/>
</svg>
