<svg viewBox="183.055 226.4284 334.0534 136.3033" width="5000" height="2040.1423844211733" xmlns="http://www.w3.org/2000/svg" xmlns:xlink="http://www.w3.org/1999/xlink" preserveAspectRatio="none"><defs></defs><style>.a6izo4zJpcolor {fill:#2B2B2B;fill-opacity:1;}.companyName {fill:#2B2B2B;fill-opacity:1;}.icon1 {fill:#2B2B2B;fill-opacity:1;}.icon2 {fill:#59C65B;fill-opacity:1;}.icon3 {fill:#6D6D6D;fill-opacity:1;}.icon3-str {stroke:#6D6D6D;stroke-opacity:1;}</style><defs>
      <filter
        x="183.055"
        y="226.4284"
        width="334.0534"
        height="136.3033"
        id="global"
        filterUnits="userSpaceOnUse"
        primitiveUnits="userSpaceOnUse"
        color-interpolation-filters="sRGB">
        <feColorMatrix
                        type="matrix"
                        values="0.3333 0.3333 0.3333 0 0 0.3333 0.3333 0.3333 0 0 0.3333 0.3333 0.3333 0 0 0 0 0 1 0"/><feColorMatrix
                        type="matrix"
                        values="-1 0 0 0 1 0 -1 0 0 1 0 0 -1 0 1 0 0 0 1 0"/>
      </filter></defs><g filter="url(#global)"><g opacity="1" transform="rotate(0 392.8005 226.4284)">
<svg width="115.1847" height="87.8283" x="392.8005" y="226.4284" version="1.1" preserveAspectRatio="none" viewBox="20 39 160 122">
  <g transform="matrix(1 0 0 1 0 0)" ><g><path d="M179.911 127.086v11.085h-20.61v-11.085h20.61z" data-color="1" class="icon1"></path><path d="M179.911 106.586v11.085h-20.61v-11.085h20.61z" data-color="1" class="icon1"></path><path d="M41.727 83.486v11.085H20V83.486h21.727z" data-color="1" class="icon1"></path><path d="M41.727 62.987v11.085H20V62.987h21.727z" data-color="1" class="icon1"></path><path d="M101.048 74.073V62.987h58.253V39H41.727v67.586h59.577v11.085H41.727v9.415h59.577v11.085H41.727V161h117.574V94.571h-58.253V83.486h58.253v-9.413h-58.253z" data-color="2" class="icon2"></path><path d="M180 83.486v11.085h-78.952V83.486H180z" data-color="1" class="icon1"></path><path d="M180 62.987v11.085h-78.952V62.987H180z" data-color="1" class="icon1"></path><path d="M101.304 127.086v11.085H20v-11.085h81.304z" data-color="1" class="icon1"></path><path d="M101.304 106.586v11.085H20v-11.085h81.304z" data-color="1" class="icon1"></path></g></g>
</svg>
</g><g opacity="1" transform="rotate(0 183.055 331.2567)">
<svg width="334.0534" height="31.475" x="183.055" y="331.2567" version="1.1" preserveAspectRatio="none" viewBox="2.5391 -28.8281 310.04999999999995 29.2188">
  <g transform="matrix(1 0 0 1 0 0)" class="a6izo4zJpcolor"><path id="id-6izo4zJp12" d="M11.35 0L2.54 0L2.54-28.44L11.29-28.44Q15.04-28.44 18.00-26.75Q20.96-25.06 22.62-21.94Q24.28-18.83 24.28-14.86L24.28-14.86L24.28-13.55Q24.28-9.59 22.65-6.50Q21.02-3.42 18.05-1.72Q15.08-0.02 11.35 0L11.35 0ZM11.29-23.69L8.40-23.69L8.40-4.71L11.23-4.71Q14.67-4.71 16.48-6.95Q18.30-9.20 18.34-13.38L18.34-13.38L18.34-14.88Q18.34-19.22 16.54-21.46Q14.75-23.69 11.29-23.69L11.29-23.69Z M46.44-16.91L46.44-12.32L35.19-12.32L35.19-4.71L48.40-4.71L48.40 0L29.34 0L29.34-28.44L48.36-28.44L48.36-23.69L35.19-23.69L35.19-16.91L46.44-16.91Z M56.74-28.44L63.14-7.05L69.59-28.44L76.11-28.44L66.21 0L60.10 0L50.23-28.44L56.74-28.44Z M96.70-16.91L96.70-12.32L85.45-12.32L85.45-4.71L98.65-4.71L98.65 0L79.59 0L79.59-28.44L98.61-28.44L98.61-23.69L85.45-23.69L85.45-16.91L96.70-16.91Z M108.75-28.44L108.75-4.71L121.19-4.71L121.19 0L102.89 0L102.89-28.44L108.75-28.44Z M147.46-14.84L147.46-13.57Q147.46-9.38 145.97-6.21Q144.49-3.05 141.72-1.33Q138.96 0.39 135.39 0.39L135.39 0.39Q131.85 0.39 129.08-1.31Q126.30-3.01 124.78-6.16Q123.26-9.32 123.24-13.42L123.24-13.42L123.24-14.82Q123.24-19.02 124.75-22.22Q126.27-25.41 129.03-27.12Q131.79-28.83 135.35-28.83Q138.90-28.83 141.67-27.12Q144.43-25.41 145.94-22.22Q147.46-19.02 147.46-14.84L147.46-14.84ZM141.52-13.48L141.52-14.86Q141.52-19.34 139.92-21.66Q138.32-23.98 135.35-23.98L135.35-23.98Q132.40-23.98 130.80-21.69Q129.20-19.39 129.18-14.96L129.18-14.96L129.18-13.57Q129.18-9.22 130.78-6.82Q132.38-4.41 135.39-4.41L135.39-4.41Q138.34-4.41 139.92-6.73Q141.50-9.04 141.52-13.48L141.52-13.48Z M163.51-10.02L158.37-10.02L158.37 0L152.51 0L152.51-28.44L163.61-28.44Q166.81-28.44 169.24-27.27Q171.68-26.09 172.98-23.94Q174.29-21.78 174.29-19.02L174.29-19.02Q174.29-14.84 171.43-12.43Q168.57-10.02 163.51-10.02L163.51-10.02ZM158.37-23.69L158.37-14.77L163.61-14.77Q165.93-14.77 167.15-15.86Q168.37-16.95 168.37-18.98L168.37-18.98Q168.37-21.07 167.14-22.36Q165.91-23.65 163.75-23.69L163.75-23.69L158.37-23.69Z M179.12-28.44L186.77-28.44L194.08-7.81L201.34-28.44L209.04-28.44L209.04 0L203.16 0L203.16-7.77L203.74-21.19L196.07 0L192.05 0L184.39-21.17L184.98-7.77L184.98 0L179.12 0L179.12-28.44Z M232.06-16.91L232.06-12.32L220.81-12.32L220.81-4.71L234.02-4.71L234.02 0L214.95 0L214.95-28.44L233.98-28.44L233.98-23.69L220.81-23.69L220.81-16.91L232.06-16.91Z M261.38-28.44L261.38 0L255.52 0L244.11-18.71L244.11 0L238.25 0L238.25-28.44L244.11-28.44L255.54-9.69L255.54-28.44L261.38-28.44Z M288.14-28.44L288.14-23.69L279.43-23.69L279.43 0L273.57 0L273.57-23.69L264.97-23.69L264.97-28.44L288.14-28.44Z M306.71-7.46L306.71-7.46Q306.71-9.12 305.54-10.01Q304.37-10.90 301.32-11.88Q298.27-12.87 296.50-13.83L296.50-13.83Q291.65-16.45 291.65-20.88L291.65-20.88Q291.65-23.18 292.95-24.99Q294.25-26.80 296.68-27.81Q299.11-28.83 302.14-28.83L302.14-28.83Q305.19-28.83 307.57-27.72Q309.95-26.62 311.27-24.61Q312.59-22.60 312.59-20.04L312.59-20.04L306.73-20.04Q306.73-21.99 305.50-23.08Q304.27-24.16 302.04-24.16L302.04-24.16Q299.89-24.16 298.70-23.25Q297.51-22.34 297.51-20.86L297.51-20.86Q297.51-19.47 298.91-18.54Q300.30-17.60 303.02-16.78L303.02-16.78Q308.02-15.27 310.30-13.05Q312.59-10.82 312.59-7.50L312.59-7.50Q312.59-3.81 309.80-1.71Q307.00 0.39 302.28 0.39L302.28 0.39Q299.00 0.39 296.30-0.81Q293.60-2.01 292.19-4.10Q290.77-6.19 290.77-8.95L290.77-8.95L296.65-8.95Q296.65-4.24 302.28-4.24L302.28-4.24Q304.37-4.24 305.54-5.09Q306.71-5.94 306.71-7.46Z"/></g>
</svg>
</g><g opacity="1" transform="rotate(0 183.055 226.4284)">
<svg width="199.4088" height="87.8283" x="183.055" y="226.4284" version="1.1" preserveAspectRatio="none" viewBox="1.32 -25.44 57.76 25.44">
  <g transform="matrix(1 0 0 1 0 0)" class="companyName"><path id="id-D6z1nYkh4" d="M10.64-5.20L10.64-5.20L10.64-9.80Q10.64-10.32 10.40-10.54Q10.16-10.76 9.56-10.76L9.56-10.76L6.04-10.76Q1.32-10.76 1.32-15.24L1.32-15.24L1.32-21.04Q1.32-25.44 6.36-25.44L6.36-25.44L11.24-25.44Q16.28-25.44 16.28-21.04L16.28-21.04L16.28-17.72L10.56-17.72L10.56-20.24Q10.56-21.24 9.48-21.24L9.48-21.24L8.12-21.24Q7.04-21.24 7.04-20.24L7.04-20.24L7.04-15.76Q7.04-15.24 7.28-15.02Q7.52-14.80 8.12-14.80L8.12-14.80L11.56-14.80Q14.12-14.80 15.24-13.70Q16.36-12.60 16.36-10.44L16.36-10.44L16.36-4.44Q16.36 0 11.32 0L11.32 0L6.48 0Q1.40 0 1.40-4.44L1.40-4.44L1.40-7.72L7.12-7.72L7.12-5.20Q7.12-4.20 8.20-4.20L8.20-4.20L9.56-4.20Q10.64-4.20 10.64-5.20Z M31.04-14.68L31.04-25.44L36.68-25.44L36.68 0L31.04 0L31.04-10.48L25.92-10.48L25.92 0L20.28 0L20.28-25.44L25.92-25.44L25.92-14.68L31.04-14.68Z M50.80-5.20L50.80-25.44L56.52-25.44L56.52-4.44Q56.52 0 51.44 0L51.44 0L46.08 0Q41.04 0 41.04-4.44L41.04-4.44L41.04-25.44L46.76-25.44L46.76-5.20Q46.76-4.20 47.80-4.20L47.80-4.20L49.72-4.20Q50.80-4.20 50.80-5.20L50.80-5.20Z"/></g>
</svg>
</g></g></svg>